# xmcd CD database file
#
# Track frame offsets:
#	150
#	20603
#	32627
#	46251
#	60354
#	81496
#	98921
#	118771
#
# Disc length: 1846 seconds
#
# Revision: 0
# Processed by: cddbd v1.5.2PL0 Copyright (c) Steve Scherf et al.
# Submitted via: CDex 1.51
#
DISCID=61073408
DTITLE=THE NAOKI - The Roots
DYEAR=1900
DGENRE=Country
TTITLE0=もどってこいよ~Come Back Now, Amigos~
TTITLE1=Go Back to the Good Old Days
TTITLE2=I Love You, Babe
TTITLE3=Let Me Love You
TTITLE4=Walking Down the Street
TTITLE5=雲~In the Middle of Summer~
TTITLE6=家に帰りたい~I Wanna Go Home~
TTITLE7=あの時にもどして~I Miss You~
EXTD=
EXTT0=
EXTT1=
EXTT2=
EXTT3=
EXTT4=
EXTT5=
EXTT6=
EXTT7=
PLAYORDER=
